{"title":"The Angriest Manin Brooklyn 2014 WEBRip XviD AC3-N3kr4","uid":10277032,"size":1816334096,"categoryP":"video","categoryS":"hd___movies","magnet":"?xt=urn:btih:066c29ce51ad1c675c057b5d935411adad576fcd&amp;dn=The+Angriest+Manin+Brooklyn+2014+WEBRip+XviD+AC3-N3kr4&amp;tr=udp%3A%2F%2Ftracker.openbittorrent.com%3A80&amp;tr=udp%3A%2F%2Fopen.demonii.com%3A1337&amp;tr=udp%3A%2F%2Ftracker.coppersurfer.tk%3A6969&amp;tr=udp%3A%2F%2Fexodus.desync.com%3A6969","seeders":2,"leechers":2,"uploader":"Falcon.G13","files":1,"time":1401661737,"description":" &lt;a href=&quot;http://i.imgur.com/gWyuSNm.jpg&quot; rel=&quot;nofollow&quot; target=&quot;_NEW&quot;&gt;http://i.imgur.com/gWyuSNm.jpg&lt;/a&gt;\n\nThe Angriest Man in Brooklyn (2014)\n 83 min - Comedy | Drama - 23 May 2014 (USA)\n5.3 Your rating: -/10 Ratings: 5.3/10 from 723 users Metascore: 21/100 \n\nA curmudgeonly man is mistakenly told that he has \n90 minutes to live by his doctor and promptly sets\n out to reconcile with his wife, brother and friends\n in the short time he believes he has left.\n &lt;a href=&quot;\nhttp://i.imgur.com/7F7rPKN.jpg&quot; rel=&quot;nofollow&quot; target=&quot;_NEW&quot;&gt;\nhttp://i.imgur.com/7F7rPKN.jpg&lt;/a&gt; &lt;a href=&quot;\nhttp://i.imgur.com/QUtvGfH.jpg&quot; rel=&quot;nofollow&quot; target=&quot;_NEW&quot;&gt;\nhttp://i.imgur.com/QUtvGfH.jpg&lt;/a&gt; &lt;a href=&quot;\nhttp://i.imgur.com/OtnxyXx.jpg&quot; rel=&quot;nofollow&quot; target=&quot;_NEW&quot;&gt;\nhttp://i.imgur.com/OtnxyXx.jpg&lt;/a&gt; &lt;a href=&quot;\nhttp://i.imgur.com/KONOnBH.jpg&quot; rel=&quot;nofollow&quot; target=&quot;_NEW&quot;&gt;\nhttp://i.imgur.com/KONOnBH.jpg&lt;/a&gt; &lt;a href=&quot;\nhttp://i.imgur.com/dd12Mjc.jpg&quot; rel=&quot;nofollow&quot; target=&quot;_NEW&quot;&gt;\nhttp://i.imgur.com/dd12Mjc.jpg&lt;/a&gt; &lt;a href=&quot;\nhttp://i.imgur.com/mgu70lb.jpg&quot; rel=&quot;nofollow&quot; target=&quot;_NEW&quot;&gt;\nhttp://i.imgur.com/mgu70lb.jpg&lt;/a&gt; &lt;a href=&quot;\nhttp://i.imgur.com/2xN93XX.jpg&quot; rel=&quot;nofollow&quot; target=&quot;_NEW&quot;&gt;\nhttp://i.imgur.com/2xN93XX.jpg&lt;/a&gt; &lt;a href=&quot;\nhttp://i.imgur.com/e0vG7fr.jpg&quot; rel=&quot;nofollow&quot; target=&quot;_NEW&quot;&gt;\nhttp://i.imgur.com/e0vG7fr.jpg&lt;/a&gt;\n\nGeneral\nComplete name :The Angriest Manin Brooklyn 2014 WEBRip XviD AC3-N3kr4.avi\nFormat : AVI\nFormat/Info : Audio Video Interleave\nFormat profile : OpenDML\nFile size : 1.69 GiB\nDuration : 1h 23mn\nOverall bit rate : 2 892 Kbps\nWriting application : Lavf55.7.100\n\nVideo\nID : 0\nFormat : MPEG-4 Visual\nFormat profile : Advanced Simple@L1\nFormat settings, BVOP : No\nFormat settings, QPel : No\nFormat settings, GMC : No warppoints\nFormat settings, Matrix : Default (H.263)\nCodec ID : XVID\nCodec ID/Hint : XviD\nDuration : 1h 23mn\nBit rate : 2 240 Kbps\nWidth : 720 pixels\nHeight : 400 pixels\nDisplay aspect ratio : 16:9\nFrame rate : 23.976 fps\nColor space : YUV\nChroma subsampling : 4:2:0\nBit depth : 8 bits\nScan type : Progressive\nCompression mode : Lossy\nBits/(Pixel*Frame) : 0.324\nStream size : 1.31 GiB (77%)\nWriting library : Lavc55.12.100\n\nAudio\nID : 1\nFormat : AC-3\nFormat/Info : Audio Coding 3\nMode extension : CM (complete main)\nFormat settings, Endianness : Big\nCodec ID : 2000\nDuration : 1h 23mn\nBit rate mode : Constant\nBit rate : 640 Kbps\nChannel(s) : 6 channels\nChannel positions : Front: L C R, Side: L R, LFE\nSampling rate : 48.0 KHz\nBit depth : 16 bits\nCompression mode : Lossy\nStream size : 383 MiB (22%)\nAlignment : Aligned on interleaves\nInterleave, duration : 32 ms (0.77 video frame)\nInterleave, preload duration : 32 ms","torrent":{"xt":"urn:btih:066c29ce51ad1c675c057b5d935411adad576fcd","amp;dn":"The+Angriest+Manin+Brooklyn+2014+WEBRip+XviD+AC3-N3kr4","amp;tr":["udp%3A%2F%2Ftracker.openbittorrent.com%3A80","udp%3A%2F%2Fopen.demonii.com%3A1337","udp%3A%2F%2Ftracker.coppersurfer.tk%3A6969","udp%3A%2F%2Fexodus.desync.com%3A6969"],"infoHash":"066c29ce51ad1c675c057b5d935411adad576fcd","infoHashBuffer":{"type":"Buffer","data":[6,108,41,206,81,173,28,103,92,5,123,93,147,84,17,173,173,87,111,205]},"announce":[],"urlList":[]}}